<?xml version="1.0" standalone="no"?>
<!DOCTYPE svg PUBLIC "-//W3C//DTD SVG 20010904//EN"
 "http://www.w3.org/TR/2001/REC-SVG-20010904/DTD/svg10.dtd">
<svg version="1.0" xmlns="http://www.w3.org/2000/svg"
 width="480.000000pt" height="480.000000pt" viewBox="0 0 480.000000 480.000000"
 preserveAspectRatio="xMidYMid meet">

<g transform="translate(0.000000,480.000000) scale(0.100000,-0.100000)"
fill="#000000" stroke="none">
<path d="M3223 4146 c-34 -16 -38 -22 -25 -44 7 -10 16 -9 45 3 93 39 189 -5
222 -102 9 -27 20 -39 35 -41 21 -3 22 -1 16 29 -11 56 -41 102 -85 134 -35
24 -53 30 -109 32 -43 2 -79 -2 -99 -11z"/>
<path d="M3247 4069 c-14 -8 -16 -14 -7 -24 9 -10 25 -13 55 -8 38 5 47 2 69
-20 14 -14 26 -33 26 -42 0 -10 9 -15 26 -15 23 0 25 3 20 28 -4 15 -22 42
-41 60 -29 27 -42 32 -82 32 -27 0 -56 -5 -66 -11z"/>
<path d="M3276 3984 c-19 -18 -20 -28 -6 -55 21 -39 90 -16 90 30 0 16 -30 41
-50 41 -10 0 -26 -7 -34 -16z"/>
<path d="M1545 3770 c-71 -38 -131 -73 -133 -79 -2 -5 2 -12 9 -17 17 -10 280
127 277 145 -2 8 -7 16 -13 17 -5 2 -68 -28 -140 -66z"/>
<path d="M1274 3636 c-9 -24 4 -48 23 -44 12 2 18 12 18 28 0 29 -32 41 -41
16z"/>
<path d="M3436 3635 c-138 -38 -267 -136 -327 -247 -30 -56 -34 -71 -34 -138
0 -106 43 -174 136 -216 l40 -17 -93 -88 c-85 -81 -90 -87 -58 -79 19 6 48 16
65 24 16 8 120 53 230 101 228 98 272 124 344 200 123 130 137 299 33 398 -70
66 -221 94 -336 62z m254 -126 c-15 -50 -14 -52 42 -83 l51 -29 -28 -15 c-25
-13 -31 -13 -56 2 -37 22 -42 20 -34 -13 5 -23 2 -32 -13 -40 -15 -8 -23 -7
-30 2 -14 17 -74 138 -70 142 28 22 44 22 59 -2 l16 -25 7 36 c5 25 15 40 34
50 15 8 28 13 29 12 2 -1 -2 -18 -7 -37z m-123 -124 c32 -64 36 -77 23 -85
-26 -17 -36 -11 -58 36 -18 36 -26 44 -36 35 -10 -8 -16 -8 -25 3 -20 24 16
81 52 85 4 1 24 -33 44 -74z m-203 4 c28 -13 56 -73 56 -122 0 -18 -12 -56
-26 -85 -25 -51 -27 -52 -70 -52 -84 0 -174 73 -174 142 0 38 45 71 85 64 25
-5 32 -2 40 16 6 13 21 28 35 35 30 15 24 15 54 2z"/>
<path d="M820 3528 c-64 -40 -93 -86 -87 -140 4 -33 258 -536 847 -1683 319
-619 470 -918 468 -920 -2 -2 -52 -6 -113 -9 -226 -13 -293 -18 -423 -32 -400
-42 -399 -110 3 -153 295 -32 958 -47 1325 -31 405 19 688 56 720 95 28 34
-74 65 -296 89 -223 24 -245 25 -539 32 l-280 7 -52 -27 c-65 -32 -119 -34
-163 -3 -34 23 -29 13 -927 1767 -97 190 -239 467 -315 615 -77 149 -142 287
-145 307 -4 27 0 48 16 78 11 22 19 40 18 40 -2 0 -27 -15 -57 -32z"/>
<path d="M2179 3048 c-11 -40 -25 -85 -31 -101 -10 -27 -70 -87 -87 -87 -17 0
-41 -69 -41 -119 0 -88 53 -185 126 -227 45 -26 72 -30 145 -19 38 6 54 3 98
-20 60 -30 188 -65 235 -64 26 0 22 4 -30 23 -157 58 -298 219 -361 411 -20
62 -26 101 -27 177 -1 54 -2 98 -3 98 -1 0 -12 -33 -24 -72z"/>
<path d="M2538 3067 c-24 -18 -59 -55 -78 -82 -42 -60 -100 -120 -120 -127
-12 -4 -10 -15 13 -64 47 -98 46 -98 102 -73 37 16 60 20 97 16 52 -7 123 3
173 24 26 10 27 13 10 16 -11 2 -30 6 -42 9 -34 7 -94 64 -114 109 -26 57 -25
145 2 179 28 36 9 33 -43 -7z"/>
<path d="M1988 2824 c-3 -3 -39 -10 -80 -15 -96 -14 -134 -38 -166 -107 -21
-47 -24 -64 -19 -118 10 -107 81 -215 169 -257 44 -21 117 -22 144 -2 27 20
31 19 49 -15 15 -30 15 -30 35 -10 22 22 55 26 66 8 4 -6 10 -24 13 -40 l6
-30 24 33 24 32 -32 66 c-18 36 -31 70 -29 74 2 5 -21 16 -50 26 -96 33 -161
119 -169 225 -4 47 -1 72 11 97 15 30 17 47 4 33z"/>
<path d="M2139 2290 c-16 -9 -46 -67 -38 -74 28 -25 79 -4 79 33 0 29 -23 51
-41 41z"/>
<path d="M2167 2123 c-9 -8 -9 -58 -1 -66 10 -9 41 10 48 29 11 28 -27 58 -47
37z"/>
<path d="M2206 2031 c-11 -13 -14 -21 -7 -26 19 -11 51 5 51 26 0 24 -22 25
-44 0z"/>
<path d="M2245 1974 c-20 -21 -6 -39 24 -29 24 7 29 45 7 45 -8 0 -22 -7 -31
-16z"/>
<path d="M2287 1923 c-14 -13 -6 -23 18 -23 16 0 25 6 25 15 0 15 -31 21 -43
8z"/>
<path d="M2390 1892 c-36 -9 -66 -17 -68 -18 -8 -6 50 -105 67 -114 50 -26
111 9 111 64 0 29 -26 87 -38 85 -4 -1 -36 -8 -72 -17z"/>
</g>
</svg>
